# xmcd
# 
# Track frame offsets:
#     150
#     10793
#     26128
#     43119
#     62308
#     76391
#     91983
#     112383
#     126315
#     137001
#     151603
#     165757
#     181071
#     192119
#     204380
#     220248
#     234607
#     248079
#     264349
#     278667
#     291473
#     306381
# 
# Disc length: 4145
# 
# Revision: 0
# Processed by: cddbd v1.5.2PL0 Copyright (c) Steve Scherf et al.
# Submitted via: fre:ac v1.0.17
# 
DISCID=2e102f16
DTITLE=Kris Kristofferson - The very best
DYEAR=0
DGENRE=Country
TTITLE0=Kris Kristofferson - HELP ME MAKE IT THROUGH THE NIGHT.1
TTITLE1=Kris Kristofferson - FOR THE GOOD TIMES.1
TTITLE2=Kris Kristofferson - LOVING HER WAS EASIER (THAN ANYTHING I'LL EVER DO AGAIN).1
TTITLE3=Kris Kristofferson - ME AND BOBBY MCGEE.1
TTITLE4=Kris Kristofferson - NOBODY WINS.1
TTITLE5=Kris Kristofferson - WHY ME.1
TTITLE6=Kris Kristofferson - SUNDAY MORNING COMING DOWN.1
TTITLE7=Kris Kristofferson - JODY and THE KID.1
TTITLE8=Kris Kristofferson - PLEASE DON'T TELL ME HOW THE STORY ENDS.1
TTITLE9=Kris Kristofferson - THE TAKER.1
TTITLE10=Kris Kristofferson - STRANGER.1
TTITLE11=Kris Kristofferson - HELP ME.1
TTITLE12=Kris Kristofferson - PUT IT OFF UNTIL TOMORROW.1
TTITLE13=Kris Kristofferson - BREAKDOWN (A LONG WAY FROM HOME).1
TTITLE14=Kris Kristofferson - HELLO IN THERE.1
TTITLE15=Kris Kristofferson - THE PILGRIM CHAPTER 33.1
TTITLE16=Kris Kristofferson - FROM THE BOTTLE TO THE BOTTOM.1
TTITLE17=Kris Kristofferson - SOMEBODY NOBODY KNOWS.1
TTITLE18=Kris Kristofferson - I'D RATHER BE SORRY.1
TTITLE19=Kris Kristofferson - ONCE MORE WITH FEELING.1
TTITLE20=Kris Kristofferson - WE MUST HAVE BEEN OUT OF OUR MINDS.1
TTITLE21=Kris Kristofferson - COME SUNDOWN.1
EXTD=
EXTT0=
EXTT1=
EXTT2=
EXTT3=
EXTT4=
EXTT5=
EXTT6=
EXTT7=
EXTT8=
EXTT9=
EXTT10=
EXTT11=
EXTT12=
EXTT13=
EXTT14=
EXTT15=
EXTT16=
EXTT17=
EXTT18=
EXTT19=
EXTT20=
EXTT21=
PLAYORDER=
